<?xml version="1.0" standalone="no"?>
<!DOCTYPE svg PUBLIC "-//W3C//DTD SVG 20010904//EN"
 "http://www.w3.org/TR/2001/REC-SVG-20010904/DTD/svg10.dtd">
<svg version="1.0" xmlns="http://www.w3.org/2000/svg"
 width="142.000000pt" height="142.000000pt" viewBox="0 0 142.000000 142.000000"
 preserveAspectRatio="xMidYMid meet">

<g transform="translate(0.000000,142.000000) scale(0.100000,-0.100000)"
fill="#fff9" stroke="none">
<path d="M410 1247 c-104 -55 -121 -204 -31 -280 128 -108 325 10 283 170 -16
57 -37 86 -83 112 -49 28 -114 27 -169 -2z"/>
<path d="M835 1256 c-61 -27 -96 -87 -97 -162 0 -153 194 -227 297 -113 19 21
37 50 41 64 11 43 -2 125 -23 153 -47 63 -147 90 -218 58z"/>
<path d="M150 959 c-62 -26 -100 -85 -100 -154 0 -102 62 -165 164 -165 100 0
158 54 164 155 3 50 0 66 -20 94 -36 53 -71 74 -130 78 -29 1 -64 -2 -78 -8z"/>
<path d="M1105 947 c-57 -32 -87 -88 -82 -155 7 -93 71 -152 167 -152 99 0
164 65 164 166 0 127 -137 205 -249 141z"/>
<path d="M629 876 c-85 -30 -140 -81 -170 -156 -7 -19 -45 -66 -84 -105 -82
-80 -100 -125 -93 -222 7 -101 61 -178 156 -225 45 -22 57 -23 262 -23 198 0
219 2 261 21 107 50 160 134 160 252 0 88 -36 161 -106 214 -35 27 -56 53 -75
95 -56 124 -195 191 -311 149z m190 -111 c23 -21 48 -58 61 -90 17 -42 34 -63
71 -90 71 -50 89 -85 89 -168 0 -72 -13 -108 -52 -144 -49 -46 -85 -53 -280
-53 -101 0 -199 4 -217 10 -38 11 -95 60 -117 102 -18 35 -18 131 0 167 15 29
80 92 114 110 11 6 25 31 32 58 9 32 28 62 57 90 l42 43 81 0 c77 0 81 -1 119
-35z"/>
</g>
</svg>
