<?xml version="1.0" standalone="no"?>
<!DOCTYPE svg PUBLIC "-//W3C//DTD SVG 20010904//EN"
 "http://www.w3.org/TR/2001/REC-SVG-20010904/DTD/svg10.dtd">
<svg version="1.0" xmlns="http://www.w3.org/2000/svg"
 width="709.000000pt" height="194.000000pt" viewBox="0 0 709.000000 194.000000"
 preserveAspectRatio="xMidYMid meet">

<g transform="translate(0.000000,194.000000) scale(0.100000,-0.100000)"
fill="#000000" stroke="none">
<path d="M6518 1660 c-113 -18 -206 -87 -229 -172 -16 -59 -6 -155 21 -207 12
-24 62 -82 111 -129 98 -94 115 -130 85 -177 -14 -21 -24 -25 -62 -25 -25 0
-54 5 -65 11 -18 9 -19 8 -13 -18 4 -15 13 -53 19 -83 12 -62 21 -67 119 -69
80 -1 129 15 181 61 82 72 86 159 15 302 -36 73 -42 92 -34 114 14 40 55 60
94 45 l32 -12 -7 167 c-4 92 -9 170 -11 173 -3 6 -57 14 -159 24 -22 2 -66 -1
-97 -5z"/>
<path d="M2159 1643 l-87 -4 4 -37 c2 -20 8 -140 14 -267 5 -126 12 -296 16
-377 l6 -148 149 0 149 0 0 79 0 78 53 6 c94 12 148 36 208 96 69 70 93 132
93 243 0 66 -5 86 -33 143 -28 57 -42 73 -93 105 -32 21 -81 46 -107 55 -52
17 -196 36 -251 33 -19 -1 -74 -4 -121 -5z m345 -354 c79 -36 33 -179 -56
-179 l-28 0 0 95 0 95 30 0 c16 0 40 -5 54 -11z"/>
<path d="M2981 1463 c-19 -98 -59 -285 -91 -415 l-57 -238 77 0 77 0 15 53 15
52 27 -58 c27 -56 29 -58 49 -42 104 75 111 76 122 25 l7 -30 149 0 c139 0
150 1 145 18 -14 44 -83 340 -130 562 l-53 245 -159 3 -160 2 -33 -177z m170
-388 c20 -51 27 -81 21 -87 -6 -6 -40 -13 -76 -15 l-65 -6 18 59 c35 110 55
155 63 140 4 -7 22 -48 39 -91z"/>
<path d="M3583 1558 c4 -46 7 -120 7 -165 l0 -82 83 6 84 6 6 -99 c4 -55 10
-170 13 -256 l7 -158 128 0 c71 0 129 3 129 8 0 4 7 115 15 247 8 132 15 244
15 249 0 5 35 6 79 3 l79 -5 6 92 c3 50 7 124 9 164 l3 72 -335 0 -334 0 6
-82z"/>
<path d="M4346 1583 c2 -32 8 -173 14 -313 6 -140 13 -301 16 -357 l6 -103
148 0 148 0 7 183 c3 100 10 261 15 357 6 96 10 201 10 233 l0 57 -184 0 -184
0 4 -57z"/>
<path d="M4803 1558 c4 -46 7 -120 7 -165 l0 -82 83 6 84 6 6 -99 c4 -55 10
-170 13 -256 l7 -158 128 0 c71 0 129 3 129 8 0 4 7 115 15 247 8 132 15 244
15 249 0 5 35 6 79 3 l79 -5 6 92 c3 50 7 124 9 164 l3 72 -335 0 -334 0 6
-82z"/>
<path d="M5671 1463 c-19 -98 -59 -285 -91 -415 l-57 -238 77 0 77 0 15 53 15
52 27 -58 c27 -56 29 -58 49 -42 104 75 111 76 122 25 l7 -30 149 0 c139 0
150 1 145 18 -14 44 -83 340 -130 562 l-53 245 -159 3 -160 2 -33 -177z m170
-388 c20 -51 27 -81 21 -87 -6 -6 -40 -13 -76 -15 l-65 -6 18 59 c35 110 55
155 63 140 4 -7 22 -48 39 -91z"/>
<path d="M510 1440 c0 -193 219 -291 362 -162 51 46 68 85 68 159 0 49 -2 55
-14 43 -7 -8 -21 -35 -30 -59 -25 -64 -52 -99 -96 -121 -53 -27 -104 -25 -156
5 -36 21 -50 39 -79 100 -20 41 -40 77 -46 80 -5 4 -9 -15 -9 -45z"/>
<path d="M1030 1440 c0 -161 161 -267 305 -201 85 39 147 149 127 226 -9 33
-20 23 -46 -44 -25 -64 -52 -99 -96 -121 -53 -27 -104 -25 -156 5 -36 21 -50
39 -79 100 -20 41 -40 77 -46 80 -5 4 -9 -15 -9 -45z"/>
<path d="M170 1065 c0 -122 85 -205 210 -205 114 0 209 94 210 208 0 60 -18
51 -57 -30 -35 -74 -74 -107 -133 -115 -81 -11 -138 27 -181 124 -38 83 -49
87 -49 18z"/>
<path d="M1384 1095 c-10 -40 16 -124 49 -162 86 -98 238 -98 324 0 37 43 62
134 46 169 -9 21 -13 16 -47 -54 -43 -90 -77 -119 -147 -126 -39 -4 -56 0 -93
22 -38 22 -51 39 -81 101 -19 41 -37 75 -40 75 -3 0 -7 -11 -11 -25z"/>
<path d="M862 1084 c-62 -31 -107 -80 -139 -152 -17 -39 -48 -78 -108 -136
-69 -68 -84 -88 -90 -121 -3 -22 -10 -49 -14 -60 -7 -18 -10 -17 -26 15 l-19
35 -8 -35 c-19 -84 22 -208 91 -279 98 -100 156 -114 471 -109 230 3 236 4
291 29 31 15 75 43 97 64 77 69 127 211 104 295 l-9 35 -13 -27 c-18 -38 -26
-35 -34 10 -8 54 -57 123 -121 171 -44 34 -61 55 -88 114 -38 82 -102 146
-165 165 -70 21 -162 15 -220 -14z m224 -30 c49 -23 96 -82 119 -149 16 -48
28 -64 70 -95 97 -72 146 -147 112 -173 -8 -7 -17 -31 -20 -55 -6 -51 -47
-114 -92 -142 -30 -19 -50 -20 -294 -20 l-261 0 -41 37 c-47 43 -64 72 -74
131 -4 23 -14 49 -22 58 -13 12 -13 20 -3 44 14 33 97 114 134 131 17 8 33 32
51 78 26 66 89 144 130 161 36 15 154 11 191 -6z m-520 -556 c12 -38 104 -127
143 -138 52 -14 518 -12 558 3 42 15 131 101 139 134 10 37 39 25 37 -15 -2
-61 -85 -151 -162 -178 -49 -18 -527 -19 -583 -2 -45 13 -131 86 -153 129 -20
37 -20 89 -1 89 8 0 18 -10 22 -22z"/>
</g>
</svg>
